<svg id="visual" viewBox="0 0 1920 1080" width="1920" height="1080" xmlns="http://www.w3.org/2000/svg" xmlns:xlink="http://www.w3.org/1999/xlink" version="1.1"><rect x="0" y="0" width="1920" height="1080" fill="#8F6A52"></rect><g transform="translate(855.358874303244 550.2152690372634)"><path d="M195.3 -350.4C259.2 -301.3 321.4 -261.4 399.4 -204.5C477.4 -147.7 571.2 -73.8 597.3 15.1C623.5 104 581.9 208 525.3 301.8C468.6 395.6 396.8 479.3 306.7 483.5C216.7 487.8 108.3 412.6 -2.1 416.3C-112.5 419.9 -225 502.2 -295.1 486.5C-365.3 470.7 -393.1 356.9 -395.8 259.4C-398.6 162 -376.3 81 -374.4 1.1C-372.5 -78.8 -391.1 -157.7 -382.2 -244.4C-373.3 -331.2 -336.9 -425.8 -268.6 -472.4C-200.3 -519 -100.2 -517.5 -17.3 -487.6C65.7 -457.7 131.3 -399.5 195.3 -350.4" fill="#6b503e"></path></g></svg>