<svg id="visual" viewBox="0 0 1920 1080" width="1920" height="1080" xmlns="http://www.w3.org/2000/svg" xmlns:xlink="http://www.w3.org/1999/xlink" version="1.1"><rect x="0" y="0" width="1920" height="1080" fill="#8F6A52"></rect><defs><linearGradient id="grad1_0" x1="43.8%" y1="0%" x2="100%" y2="100%"><stop offset="14.444444444444446%" stop-color="#8f6a52" stop-opacity="1"></stop><stop offset="85.55555555555554%" stop-color="#8f6a52" stop-opacity="1"></stop></linearGradient></defs><defs><linearGradient id="grad2_0" x1="0%" y1="0%" x2="56.3%" y2="100%"><stop offset="14.444444444444446%" stop-color="#8f6a52" stop-opacity="1"></stop><stop offset="85.55555555555554%" stop-color="#8f6a52" stop-opacity="1"></stop></linearGradient></defs><g transform="translate(1920, 0)"><path d="M0 540C-99.9 529 -199.8 518 -270 467.7C-340.2 417.3 -380.8 327.5 -420.9 243C-460.9 158.5 -500.5 79.2 -540 0L0 0Z" fill="#6b503e"></path></g><g transform="translate(0, 1080)"><path d="M0 -540C97.2 -527.5 194.5 -515 270 -467.7C345.5 -420.3 399.4 -338.2 440.8 -254.5C482.2 -170.8 511.1 -85.4 540 0L0 0Z" fill="#6b503e"></path></g></svg>