<svg id="visual" viewBox="0 0 1920 1080" width="1920" height="1080" xmlns="http://www.w3.org/2000/svg" xmlns:xlink="http://www.w3.org/1999/xlink" version="1.1"><g stroke-width="1" stroke-linejoin="bevel"><path d="M919 516L881 315L843 551Z" fill="#655041" stroke="#655041"></path><path d="M881 315L793 267L843 551Z" fill="#7a5d4a" stroke="#7a5d4a"></path><path d="M1062 263L872 244L881 315Z" fill="#8f6a52" stroke="#8f6a52"></path><path d="M881 315L872 244L793 267Z" fill="#655041" stroke="#655041"></path><path d="M872 244L840 228L793 267Z" fill="#8f6a52" stroke="#8f6a52"></path><path d="M636 697L806 682L843 551Z" fill="#6c5444" stroke="#6c5444"></path><path d="M843 551L957 760L919 516Z" fill="#735847" stroke="#735847"></path><path d="M919 516L1062 263L881 315Z" fill="#8f6a52" stroke="#8f6a52"></path><path d="M872 244L1027 0L840 228Z" fill="#514239" stroke="#514239"></path><path d="M793 267L535 529L843 551Z" fill="#5f4b3e" stroke="#5f4b3e"></path><path d="M957 760L1074 639L919 516Z" fill="#5f4b3e" stroke="#5f4b3e"></path><path d="M919 516L1074 639L1062 263Z" fill="#58473c" stroke="#58473c"></path><path d="M535 529L636 697L843 551Z" fill="#81614c" stroke="#81614c"></path><path d="M591 121L483 389L793 267Z" fill="#7a5d4a" stroke="#7a5d4a"></path><path d="M793 267L483 389L535 529Z" fill="#735847" stroke="#735847"></path><path d="M954 807L957 760L806 682Z" fill="#58473c" stroke="#58473c"></path><path d="M806 682L957 760L843 551Z" fill="#735847" stroke="#735847"></path><path d="M670 0L591 121L840 228Z" fill="#7a5d4a" stroke="#7a5d4a"></path><path d="M840 228L591 121L793 267Z" fill="#5f4b3e" stroke="#5f4b3e"></path><path d="M856 996L954 807L806 682Z" fill="#6c5444" stroke="#6c5444"></path><path d="M957 760L1066 770L1074 639Z" fill="#81614c" stroke="#81614c"></path><path d="M483 389L423 463L535 529Z" fill="#58473c" stroke="#58473c"></path><path d="M478 808L534 810L636 697Z" fill="#655041" stroke="#655041"></path><path d="M419 283L423 463L483 389Z" fill="#735847" stroke="#735847"></path><path d="M954 807L1066 770L957 760Z" fill="#58473c" stroke="#58473c"></path><path d="M591 121L419 283L483 389Z" fill="#7a5d4a" stroke="#7a5d4a"></path><path d="M1027 0L670 0L840 228Z" fill="#58473c" stroke="#58473c"></path><path d="M412 0L328 244L419 283Z" fill="#5f4b3e" stroke="#5f4b3e"></path><path d="M954 807L1058 834L1066 770Z" fill="#5f4b3e" stroke="#5f4b3e"></path><path d="M1062 263L1027 0L872 244Z" fill="#7a5d4a" stroke="#7a5d4a"></path><path d="M478 808L636 697L535 529Z" fill="#5f4b3e" stroke="#5f4b3e"></path><path d="M636 697L856 996L806 682Z" fill="#8f6a52" stroke="#8f6a52"></path><path d="M954 807L856 996L1058 834Z" fill="#81614c" stroke="#81614c"></path><path d="M1324 237L1197 102L1062 263Z" fill="#6c5444" stroke="#6c5444"></path><path d="M1062 263L1197 102L1027 0Z" fill="#6c5444" stroke="#6c5444"></path><path d="M1365 371L1062 263L1074 639Z" fill="#5f4b3e" stroke="#5f4b3e"></path><path d="M1291 627L1074 639L1271 706Z" fill="#6c5444" stroke="#6c5444"></path><path d="M1271 706L1074 639L1066 770Z" fill="#655041" stroke="#655041"></path><path d="M670 0L547 0L591 121Z" fill="#88664f" stroke="#88664f"></path><path d="M1058 834L1271 706L1066 770Z" fill="#5f4b3e" stroke="#5f4b3e"></path><path d="M423 463L478 808L535 529Z" fill="#5f4b3e" stroke="#5f4b3e"></path><path d="M534 810L856 996L636 697Z" fill="#58473c" stroke="#58473c"></path><path d="M1365 371L1324 237L1062 263Z" fill="#81614c" stroke="#81614c"></path><path d="M1491 697L1365 371L1291 627Z" fill="#81614c" stroke="#81614c"></path><path d="M1291 627L1365 371L1074 639Z" fill="#514239" stroke="#514239"></path><path d="M412 0L419 283L591 121Z" fill="#58473c" stroke="#58473c"></path><path d="M419 283L328 244L423 463Z" fill="#514239" stroke="#514239"></path><path d="M150 544L424 850L478 808Z" fill="#4b3e36" stroke="#4b3e36"></path><path d="M802 1080L856 996L534 810Z" fill="#8f6a52" stroke="#8f6a52"></path><path d="M1058 834L1402 884L1271 706Z" fill="#81614c" stroke="#81614c"></path><path d="M150 544L478 808L423 463Z" fill="#8f6a52" stroke="#8f6a52"></path><path d="M478 808L424 850L534 810Z" fill="#88664f" stroke="#88664f"></path><path d="M1285 0L1250 0L1197 102Z" fill="#58473c" stroke="#58473c"></path><path d="M1197 102L1250 0L1027 0Z" fill="#6c5444" stroke="#6c5444"></path><path d="M547 0L412 0L591 121Z" fill="#8f6a52" stroke="#8f6a52"></path><path d="M1521 0L1285 0L1324 237Z" fill="#58473c" stroke="#58473c"></path><path d="M1324 237L1285 0L1197 102Z" fill="#6c5444" stroke="#6c5444"></path><path d="M188 194L222 271L328 244Z" fill="#88664f" stroke="#88664f"></path><path d="M328 244L222 271L423 463Z" fill="#5f4b3e" stroke="#5f4b3e"></path><path d="M533 1080L802 1080L534 810Z" fill="#5f4b3e" stroke="#5f4b3e"></path><path d="M856 996L960 1080L1058 834Z" fill="#514239" stroke="#514239"></path><path d="M802 1080L960 1080L856 996Z" fill="#81614c" stroke="#81614c"></path><path d="M412 0L188 194L328 244Z" fill="#735847" stroke="#735847"></path><path d="M222 271L150 544L423 463Z" fill="#4b3e36" stroke="#4b3e36"></path><path d="M0 447L150 544L222 271Z" fill="#88664f" stroke="#88664f"></path><path d="M1402 884L1491 697L1271 706Z" fill="#7a5d4a" stroke="#7a5d4a"></path><path d="M1271 706L1491 697L1291 627Z" fill="#514239" stroke="#514239"></path><path d="M1365 371L1550 295L1324 237Z" fill="#88664f" stroke="#88664f"></path><path d="M332 1080L533 1080L424 850Z" fill="#88664f" stroke="#88664f"></path><path d="M424 850L533 1080L534 810Z" fill="#4b3e36" stroke="#4b3e36"></path><path d="M1245 1080L1402 884L1058 834Z" fill="#735847" stroke="#735847"></path><path d="M1649 455L1550 295L1365 371Z" fill="#58473c" stroke="#58473c"></path><path d="M0 536L108 658L150 544Z" fill="#4b3e36" stroke="#4b3e36"></path><path d="M150 544L108 658L424 850Z" fill="#735847" stroke="#735847"></path><path d="M960 1080L1245 1080L1058 834Z" fill="#7a5d4a" stroke="#7a5d4a"></path><path d="M1491 697L1616 610L1365 371Z" fill="#5f4b3e" stroke="#5f4b3e"></path><path d="M1634 636L1616 610L1491 697Z" fill="#4b3e36" stroke="#4b3e36"></path><path d="M1550 295L1566 84L1324 237Z" fill="#88664f" stroke="#88664f"></path><path d="M1689 270L1566 84L1550 295Z" fill="#81614c" stroke="#81614c"></path><path d="M1566 84L1521 0L1324 237Z" fill="#735847" stroke="#735847"></path><path d="M1245 1080L1323 1080L1402 884Z" fill="#88664f" stroke="#88664f"></path><path d="M1402 884L1536 863L1491 697Z" fill="#735847" stroke="#735847"></path><path d="M1616 610L1649 455L1365 371Z" fill="#735847" stroke="#735847"></path><path d="M412 0L136 0L188 194Z" fill="#735847" stroke="#735847"></path><path d="M0 184L0 447L222 271Z" fill="#6c5444" stroke="#6c5444"></path><path d="M142 913L332 1080L424 850Z" fill="#6c5444" stroke="#6c5444"></path><path d="M1521 1080L1536 863L1402 884Z" fill="#5f4b3e" stroke="#5f4b3e"></path><path d="M1672 801L1634 636L1491 697Z" fill="#514239" stroke="#514239"></path><path d="M1616 610L1634 636L1649 455Z" fill="#6c5444" stroke="#6c5444"></path><path d="M0 184L222 271L188 194Z" fill="#735847" stroke="#735847"></path><path d="M0 447L0 536L150 544Z" fill="#6c5444" stroke="#6c5444"></path><path d="M108 658L142 913L424 850Z" fill="#81614c" stroke="#81614c"></path><path d="M0 687L142 913L108 658Z" fill="#8f6a52" stroke="#8f6a52"></path><path d="M136 0L0 184L188 194Z" fill="#5f4b3e" stroke="#5f4b3e"></path><path d="M1920 441L1689 270L1649 455Z" fill="#735847" stroke="#735847"></path><path d="M1649 455L1689 270L1550 295Z" fill="#8f6a52" stroke="#8f6a52"></path><path d="M1566 84L1725 0L1521 0Z" fill="#514239" stroke="#514239"></path><path d="M0 536L0 687L108 658Z" fill="#8f6a52" stroke="#8f6a52"></path><path d="M1725 816L1672 801L1674 1080Z" fill="#4b3e36" stroke="#4b3e36"></path><path d="M1536 863L1672 801L1491 697Z" fill="#5f4b3e" stroke="#5f4b3e"></path><path d="M1920 634L1920 441L1649 455Z" fill="#58473c" stroke="#58473c"></path><path d="M136 0L0 0L0 184Z" fill="#88664f" stroke="#88664f"></path><path d="M1323 1080L1521 1080L1402 884Z" fill="#5f4b3e" stroke="#5f4b3e"></path><path d="M1674 1080L1672 801L1536 863Z" fill="#88664f" stroke="#88664f"></path><path d="M1672 801L1725 816L1634 636Z" fill="#4b3e36" stroke="#4b3e36"></path><path d="M142 913L109 1080L332 1080Z" fill="#655041" stroke="#655041"></path><path d="M0 944L109 1080L142 913Z" fill="#8f6a52" stroke="#8f6a52"></path><path d="M0 687L0 944L142 913Z" fill="#81614c" stroke="#81614c"></path><path d="M1920 144L1725 0L1689 270Z" fill="#81614c" stroke="#81614c"></path><path d="M1689 270L1725 0L1566 84Z" fill="#7a5d4a" stroke="#7a5d4a"></path><path d="M0 944L0 1080L109 1080Z" fill="#7a5d4a" stroke="#7a5d4a"></path><path d="M1521 1080L1674 1080L1536 863Z" fill="#655041" stroke="#655041"></path><path d="M1920 634L1634 636L1725 816Z" fill="#81614c" stroke="#81614c"></path><path d="M1920 634L1649 455L1634 636Z" fill="#514239" stroke="#514239"></path><path d="M1920 810L1920 634L1725 816Z" fill="#735847" stroke="#735847"></path><path d="M1920 441L1920 144L1689 270Z" fill="#655041" stroke="#655041"></path><path d="M1920 954L1920 810L1725 816Z" fill="#5f4b3e" stroke="#5f4b3e"></path><path d="M1920 144L1920 0L1725 0Z" fill="#81614c" stroke="#81614c"></path><path d="M1674 1080L1920 954L1725 816Z" fill="#655041" stroke="#655041"></path><path d="M1674 1080L1920 1080L1920 954Z" fill="#735847" stroke="#735847"></path></g></svg>